<?xml version="1.0" encoding="UTF-8"?><svg xmlns="http://www.w3.org/2000/svg" viewBox="0 0 800 800"><defs><style>.cls-1{fill:#c8ff08;}.cls-1,.cls-2{stroke-width:0px;}.cls-2{fill:#005e60;}</style></defs><g id="Background"><circle class="cls-1" cx="400" cy="400" r="400"/></g><g id="Design"><path class="cls-2" d="M217.73,558.91c-.38,8.15,2.51,15.88,8.12,21.77,5.62,5.88,13.19,9.13,21.32,9.13h143.04c12.78,0,24.29-8.15,29.32-20.76,5.01-12.55-1.63-28.92-6.32-34.96l-42.55-56.4,79.57-10.35-22.4,83.25c-4.37,16.2,4.85,33.08,20.55,37.61,7.85,2.27,16.09,1.31,23.2-2.69,7.12-4.01,12.21-10.56,14.34-18.45l7.85-29.18.62,1.12c5.61,10.97,18.62,15.89,29.67,11.18,5.92-2.53,10.39-7.24,12.58-13.26,2.16-5.94,1.76-12.57-1.12-18.26l-24.07-46.35,11.56-43.04c.04-.16.08-.32.11-.48,1.39-7.63-1.14-16.04-6.62-21.94-5.14-5.54-15.27-11.72-34.39-9.7-.06,0-.11.01-.17.02l-6.12.82,2.91-47.74c7.42,6.58,17.17,10.58,27.84,10.58,23.17,0,42.03-18.85,42.03-42.03s-18.85-42.03-42.03-42.03c-19.85,0-36.51,13.83-40.89,32.36-6.31-12.74-13.1-26.39-17.19-34.59l82.49-11.1c13.83-1.85,23.8-14.35,22.24-27.88-.77-6.62-4.26-12.8-9.59-16.94-5.39-4.18-12.04-5.98-18.71-5.07l-115.96,15.59c-13.74,1.86-23.4,14.53-21.54,28.25.42,3.12,6.52,16.18,18.12,38.85-8.92,7.9-35.89,32.54-120.39,111.17-8.35,7.61-13.25,18-13.78,29.28-.53,11.28,3.36,22.09,10.97,30.46,2.12,2.33,29.03,36.42,50.47,63.68h-84.95c-16.14,0-29.36,12.33-30.12,28.08ZM474.33,563.93c-1.28,4.75-4.35,8.69-8.64,11.11-4.29,2.41-9.25,2.99-13.98,1.62-9.46-2.73-14.97-13.04-12.3-22.97l20.89-77.65,25.13,46.62-11.1,41.27ZM483.44,409.06c11.18-1.17,19.57.88,24.25,5.93,3.45,3.72,4.15,8.29,3.65,11.41l-8.11,30.2-24.56-46.9,4.78-.64ZM506.55,288.76c16.56,0,30.03,13.47,30.03,30.03s-13.47,30.03-30.03,30.03-30.03-13.47-30.03-30.03,13.47-30.03,30.03-30.03ZM349.86,533.12c-5.66-7.2-55.37-70.45-58.67-74.06-5.45-5.98-8.23-13.72-7.85-21.8.38-8.08,3.89-15.53,9.92-21.02,46.85-43.59,117.97-109.52,123.11-113.6,2.49-1.68,3.38-4.99,1.97-7.72-8.63-16.75-18.04-35.89-19.07-39.36-.84-7.07,4.18-13.56,11.28-14.53l115.96-15.59c3.47-.47,6.92.47,9.74,2.66,2.84,2.21,4.63,5.34,5.03,8.83.82,7.07-4.53,13.62-11.92,14.6l-90.8,12.21c-1.92.26-3.6,1.43-4.5,3.14-.91,1.71-.93,3.75-.07,5.49.24.48,23.93,47.99,32.74,66.09.39.79.56,1.68.51,2.59l-3.86,63.46s0,.07,0,.1c0,.15,0,.29,0,.44,0,.06,0,.13,0,.19,0,.16.03.32.05.47,0,.05.01.1.02.15.03.18.07.36.12.53,0,.03.01.06.02.09.11.4.26.79.46,1.17l35.65,68.07s0,0,0,0l25.12,48.37c1.38,2.72,1.56,5.81.52,8.68-1.05,2.87-3.18,5.12-6.01,6.33-5.28,2.25-11.56-.24-14.3-5.66-.03-.06-.06-.12-.1-.18l-7.82-14.22s0,0,0,0l-49.43-91.7-10.11-18.69,1.26-36.39c.08-2.45-1.33-4.71-3.58-5.7-2.25-.99-4.87-.51-6.62,1.21l-44.46,43.72c-1.84,1.81-2.32,4.59-1.18,6.91,1.02,2.08,3.12,3.37,5.39,3.37.26,0,.52-.02.79-.05l39.05-5.16,8.92,16.48,12.02,22.29-90.28,11.75c-2.12.28-3.93,1.66-4.76,3.63-.83,1.97-.54,4.23.74,5.94l48.79,64.67s.04.06.07.08c3.25,4.15,7.49,16.09,4.67,23.16-3.21,8.02-10.34,13.21-18.18,13.21h-143.04c-4.82,0-9.31-1.92-12.64-5.41-3.33-3.49-5.04-8.08-4.82-12.91.44-9.18,8.57-16.64,18.13-16.64h97.3c2.3,0,4.39-1.31,5.4-3.38,1-2.07.74-4.52-.68-6.33ZM415.82,302.97c.17-.09.33-.18.48-.28-.21.15-.38.23-.48.28ZM425.72,404.82l-20.33,2.69,20.95-20.6-.62,17.92Z"/><path class="cls-2" d="M635.95,151.25H164.78c-8.85,0-16.05,7.2-16.05,16.05v130.37c0,3.31,2.69,6,6,6s6-2.69,6-6v-130.37c0-2.23,1.82-4.05,4.05-4.05h471.17c2.23,0,4.05,1.82,4.05,4.05v471.17c0,2.23-1.82,4.05-4.05,4.05H164.75c-2.23,0-4.05-1.82-4.05-4.05v-147.33c0-3.31-2.69-6-6-6s-6,2.69-6,6v147.33c0,8.85,7.2,16.05,16.05,16.05h471.2c8.85,0,16.05-7.2,16.05-16.05V167.3c0-8.85-7.2-16.05-16.05-16.05Z"/></g></svg>