<?xml version="1.0" encoding="UTF-8"?><svg xmlns="http://www.w3.org/2000/svg" viewBox="0 0 800 800"><defs><style>.cls-1{fill:#c8ff08;}.cls-1,.cls-2{stroke-width:0px;}.cls-2{fill:#005e60;}</style></defs><g id="Background"><circle class="cls-1" cx="400" cy="400" r="400"/></g><g id="Design"><path class="cls-2" d="M276.89,609.24c-23.85,0-43.25,19.4-43.25,43.25s19.4,43.25,43.25,43.25,43.25-19.4,43.25-43.25-19.4-43.25-43.25-43.25ZM276.89,683.74c-17.23,0-31.25-14.02-31.25-31.25s14.02-31.25,31.25-31.25,31.25,14.02,31.25,31.25-14.02,31.25-31.25,31.25Z"/><path class="cls-2" d="M276.89,631.38c-11.64,0-21.11,9.47-21.11,21.11s9.47,21.11,21.11,21.11,21.11-9.47,21.11-21.11-9.47-21.11-21.11-21.11ZM276.89,661.61c-5.03,0-9.11-4.09-9.11-9.11s4.09-9.11,9.11-9.11,9.11,4.09,9.11,9.11-4.09,9.11-9.11,9.11Z"/><path class="cls-2" d="M546.89,631.38c-11.64,0-21.11,9.47-21.11,21.11s9.47,21.11,21.11,21.11,21.11-9.47,21.11-21.11-9.47-21.11-21.11-21.11ZM546.89,661.61c-5.03,0-9.11-4.09-9.11-9.11s4.09-9.11,9.11-9.11,9.11,4.09,9.11,9.11-4.09,9.11-9.11,9.11Z"/><path class="cls-2" d="M547.13,609.24c-23.85,0-43.25,19.4-43.25,43.25s19.4,43.25,43.25,43.25,43.25-19.4,43.25-43.25-19.4-43.25-43.25-43.25ZM547.13,683.74c-17.23,0-31.25-14.02-31.25-31.25s14.02-31.25,31.25-31.25,31.25,14.02,31.25,31.25-14.02,31.25-31.25,31.25Z"/><path class="cls-2" d="M538.26,479.87c-3.41-5.49-9.53-8.9-16-8.9h-68.16c-3.31,0-6,2.69-6,6v49.67c0,3.31,2.69,6,6,6h107.48c2.2,0,4.23-1.21,5.28-3.14,1.05-1.94.95-4.29-.25-6.13l-28.35-43.49ZM460.1,520.64v-37.67h62.16c2.36,0,4.59,1.25,5.82,3.26.03.05.06.09.09.14l22.34,34.28h-90.41Z"/><path class="cls-2" d="M635,580.82h-4.51v-3.85c0-17.83-9.71-34.23-25.34-42.81l-16.46-9.03-36.21-58.98c-4.52-7.37-12.7-11.94-21.34-11.94h-92.92v-19.99c0-12.25-9.97-22.22-22.22-22.22h-223.04c-11.44,0-20.75,9.31-20.75,20.75v208.99c0,10.95,8.91,19.87,19.87,19.87h28.89c1.65,0,3.23-.68,4.36-1.88,1.13-1.2,1.72-2.81,1.63-4.46-.05-.94-.08-1.87-.08-2.77,0-27.58,22.43-50.01,50.01-50.01s50.01,22.43,50.01,50.01c0,.9-.03,1.83-.08,2.77-.1,1.65.49,3.26,1.63,4.47,1.13,1.2,2.71,1.88,4.36,1.88h158.19c1.65,0,3.23-.68,4.36-1.88,1.13-1.2,1.72-2.82,1.63-4.47-.05-.93-.08-1.86-.08-2.77,0-27.58,22.43-50.01,50.01-50.01s50.01,22.43,50.01,50.01c0,.9-.03,1.83-.08,2.77-.09,1.65.49,3.26,1.63,4.46,1.13,1.2,2.71,1.88,4.36,1.88h21.66c3.31,0,6-2.69,6-6v-15.05h4.51c3.31,0,6-2.69,6-6v-47.73c0-3.31-2.69-6-6-6ZM629,628.56h-9.3v-35.73h9.3v35.73ZM276.89,590.48c-33.22,0-60.43,26.27-61.94,59.12h-22.87c-4.34,0-7.87-3.53-7.87-7.87v-208.99c0-4.82,3.92-8.75,8.75-8.75h223.04c5.63,0,10.22,4.58,10.22,10.22v215.39h-87.39c-1.51-32.86-28.72-59.12-61.94-59.12ZM618.49,649.6h-9.64c-1.51-32.86-28.72-59.12-61.94-59.12s-60.43,26.27-61.94,59.12h-46.75v-183.4h92.92c4.5,0,8.76,2.38,11.12,6.22l37.04,60.34c.55.89,1.31,1.62,2.23,2.12l17.85,9.79c11.79,6.47,19.11,18.84,19.11,32.29v3.85h-4.79c-3.31,0-6,2.69-6,6v47.73c0,3.31,2.69,6,6,6h4.79v9.05Z"/><path class="cls-2" d="M496.88,539.4h-42.78c-3.31,0-6,2.69-6,6s2.69,6,6,6h42.78c3.31,0,6-2.69,6-6s-2.69-6-6-6Z"/><path class="cls-2" d="M661.76,161.27c-56.34-56.34-147.81-56.62-204.51-.87-.37.23-.72.5-1.05.82-.32.32-.59.68-.83,1.05-55.64,56.71-55.32,148.11.98,204.41,28.32,28.32,65.51,42.47,102.71,42.47s74.34-14.14,102.65-42.42c0,0,0,0,0,0,0,0,0,0,0,0,.02-.02.03-.03.05-.04,56.63-56.63,56.63-148.78,0-205.41ZM653.27,169.76c50.55,50.55,51.91,131.93,4.09,184.15l-43.36-43.36v-120.44c0-15.24-12.4-27.65-27.65-27.65h-54.37c-15.24,0-27.64,12.4-27.64,27.65v10.78l-35.22-35.22c25.38-23.24,57.65-34.87,89.93-34.87,34.12,0,68.24,12.99,94.22,38.97ZM601.87,298.41l-85.41-85.41v-14.94h85.41v100.35ZM516.46,229.97l85.41,85.41v.04h-85.41v-85.45ZM516.89,186.06c1.79-6.67,7.87-11.6,15.1-11.6h54.37c7.23,0,13.31,4.93,15.1,11.6h-84.56ZM516.34,327.43h85.66v10.61c0,8.63-7.02,15.65-15.65,15.65h-54.37c-8.63,0-15.64-7.02-15.64-15.65v-10.61ZM464.83,358.2c-50.51-50.51-51.91-131.83-4.19-184.05l43.7,43.7v120.18c0,15.24,12.4,27.65,27.64,27.65h54.37c15.25,0,27.65-12.4,27.65-27.65v-10.52l34.88,34.88c-52.22,47.71-133.53,46.32-184.05-4.19Z"/><path class="cls-2" d="M177.34,384.28c1.17,1.17,2.71,1.76,4.24,1.76s3.07-.59,4.24-1.76l50.82-50.82c1.12-1.12,1.76-2.65,1.76-4.24s-.63-3.12-1.76-4.24l-8.46-8.46,28.93-28.93c2.72-2.73,2.72-7.17,0-9.9l-49.41-49.41c-2.73-2.73-7.17-2.73-9.9,0l-28.93,28.93-8.46-8.46c-2.34-2.34-6.14-2.34-8.49,0l-50.82,50.82c-1.12,1.12-1.76,2.65-1.76,4.24s.63,3.12,1.76,4.24l12.7,12.7-55.05,55.05c-2.34,2.34-2.34,6.14,0,8.49,2.34,2.34,6.14,2.34,8.49,0l71.99-71.99,33.87,33.87-71.99,71.99c-2.34,2.34-2.34,6.14,0,8.49,1.17,1.17,2.71,1.76,4.24,1.76s3.07-.59,4.24-1.76l55.05-55.05,12.7,12.7ZM202.76,240.29l42.34,42.34-25.4,25.4-8.46-8.46,12.7-12.7c1.12-1.12,1.76-2.65,1.76-4.24s-.63-3.12-1.76-4.24l-16.94-16.94c-1.12-1.12-2.65-1.76-4.24-1.76s-3.12.63-4.24,1.76l-12.7,12.7-8.46-8.46,25.4-25.4ZM202.76,291.08l-8.46-8.45,8.46-8.46,8.46,8.46-8.46,8.45ZM143.47,299.56c-1.13-1.12-2.65-1.76-4.24-1.76s-3.12.63-4.24,1.76l-12.7,12.7-8.46-8.46,42.34-42.34,8.46,8.46,50.82,50.82,8.46,8.46-42.34,42.34-8.46-8.46,12.7-12.7c1.12-1.12,1.76-2.65,1.76-4.24s-.63-3.12-1.76-4.24l-42.35-42.35Z"/><path class="cls-2" d="M287.46,274.17c1.17,1.17,2.71,1.76,4.24,1.76s3.07-.59,4.24-1.76l59.29-59.29c2.34-2.34,2.34-6.14,0-8.49l-12.7-12.7,46.58-46.58c2.34-2.34,2.34-6.14,0-8.49s-6.14-2.34-8.49,0l-46.58,46.58-33.87-33.87,46.58-46.58c2.34-2.34,2.34-6.14,0-8.49-2.34-2.34-6.14-2.34-8.49,0l-46.58,46.58-12.7-12.7c-2.34-2.34-6.14-2.34-8.49,0l-59.29,59.29c-2.34,2.34-2.34,6.14,0,8.49l76.23,76.23ZM274.76,142.88l67.75,67.75-50.81,50.81-67.75-67.75,50.81-50.81Z"/><path class="cls-2" d="M300.17,233.57c1.54,0,3.07-.59,4.24-1.76l16.94-16.94c1.12-1.12,1.76-2.65,1.76-4.24s-.63-3.12-1.76-4.24l-42.35-42.35c-2.34-2.34-6.14-2.34-8.49,0l-16.94,16.94c-2.34,2.34-2.34,6.14,0,8.49l42.35,42.35c1.17,1.17,2.71,1.76,4.24,1.76ZM274.76,176.77l33.87,33.87-8.46,8.46-33.87-33.87,8.46-8.46Z"/><path class="cls-2" d="M559.17,347.26c3.94,0,7.12-3.18,7.12-7.12s-3.18-7.13-7.12-7.13-7.13,3.19-7.13,7.13,3.19,7.12,7.13,7.12Z"/></g></svg>