<?xml version="1.0" encoding="UTF-8"?><svg xmlns="http://www.w3.org/2000/svg" viewBox="0 0 800 800"><defs><style>.cls-1{fill:#c8ff08;}.cls-1,.cls-2{stroke-width:0px;}.cls-2{fill:#005e60;}</style></defs><g id="Background"><circle class="cls-1" cx="400" cy="400" r="400"/></g><g id="Design"><path class="cls-2" d="M657.39,348.62h-3.02v-29.57c0-75.02-61.03-136.05-136.05-136.05s-136.05,61.03-136.05,136.05v29.57h-3.02c-22.24,0-40.33,18.09-40.33,40.33v213.12c0,22.24,18.09,40.33,40.33,40.33h278.15c22.24,0,40.33-18.09,40.33-40.33v-213.12c0-22.24-18.09-40.33-40.33-40.33ZM394.26,319.05c0-68.4,55.65-124.05,124.05-124.05s124.05,55.65,124.05,124.05v29.57h-15.68v-29.57c0-59.76-48.62-108.38-108.38-108.38s-108.38,48.62-108.38,108.38v29.57h-15.68v-29.57ZM421.94,348.62v-29.57c0-53.14,43.23-96.38,96.38-96.38s96.38,43.23,96.38,96.38v29.57h-192.75ZM685.71,602.07c0,15.62-12.71,28.33-28.33,28.33h-278.15c-15.62,0-28.33-12.71-28.33-28.33v-213.12c0-15.62,12.71-28.33,28.33-28.33h278.15c15.62,0,28.33,12.71,28.33,28.33v213.12Z"/><path class="cls-2" d="M517.72,433.55c-24.36,0-44.18,19.82-44.18,44.18,0,8.06,3.14,15.63,8.84,21.33l8.84,8.84v22.85c0,14.62,11.89,26.51,26.51,26.51s26.51-11.89,26.51-26.51v-22.85l8.84-8.84c5.7-5.69,8.84-13.27,8.84-21.33,0-24.36-19.82-44.18-44.18-44.18ZM544.58,490.57l-8.84,8.84c-2.25,2.25-3.51,5.3-3.51,8.49v22.85c0,8-6.51,14.51-14.51,14.51s-14.51-6.51-14.51-14.51v-22.85c0-3.18-1.26-6.23-3.51-8.49l-8.84-8.84c-3.43-3.43-5.32-7.99-5.32-12.84,0-17.74,14.44-32.18,32.18-32.18s32.18,14.44,32.18,32.18c0,4.85-1.89,9.41-5.32,12.84Z"/><path class="cls-2" d="M344.77,237.63l14.8-2.98c.74-.15,1.34-.7,1.54-1.44l4.27-15.69c.2-.73-.03-1.51-.6-2.02l-11.25-10.07c-.06-4.15-.57-8.28-1.52-12.32l8.53-12.65c.43-.63.46-1.45.08-2.11l-7.98-13.97c-.38-.66-1.1-1.05-1.86-1l-15.21.96c-2.99-2.87-6.29-5.41-9.83-7.56l-2.96-14.82c-.15-.74-.7-1.34-1.44-1.54l-15.67-4.26c-.73-.2-1.51.03-2.02.6l-10.06,11.27c-4.14.06-8.27.57-12.3,1.54l-12.62-8.53c-.62-.42-1.43-.46-2.09-.09l-14.27,7.92c-.67.37-1.07,1.1-1.03,1.87l.95,15.19c-2.92,2.99-5.54,6.27-7.83,9.77l-14.84,2.99c-.74.15-1.34.71-1.54,1.44l-4.27,15.69c-.2.73.03,1.51.6,2.02l11.25,10.07c.06,4.15.57,8.29,1.52,12.32l-8.53,12.65c-.43.63-.46,1.45-.08,2.11l8.2,14.37c.38.66,1.11,1.05,1.86,1l15.2-.96c2.99,2.89,6.29,5.43,9.82,7.59l2.96,14.82c.15.74.7,1.34,1.44,1.54l15.67,4.26c.17.05.35.07.53.07.56,0,1.11-.24,1.49-.67l10.06-11.27c4.13-.06,8.27-.57,12.3-1.53l12.62,8.53c.63.43,1.45.46,2.11.08l14.35-8.22c.66-.38,1.05-1.1,1-1.86l-.94-15.23c2.87-2.99,5.4-6.3,7.56-9.85ZM275.83,264.56l-2.66-13.34c-.11-.55-.45-1.03-.92-1.32l-2.47-1.5c-3.34-1.94-6.43-4.3-9.17-7l-2.08-2.12c-.41-.42-.98-.64-1.57-.59l-13.76.89-2.96-5.18,7.73-11.47c.32-.48.42-1.08.27-1.64l-.76-2.84c-.95-3.75-1.42-7.62-1.4-11.53l-.03-2.86c0-.56-.25-1.09-.67-1.47l-10.14-9.07,1.51-5.55,13.26-2.67c.54-.11,1-.43,1.29-.89l1.49-2.35c2.13-3.36,4.64-6.49,7.45-9.3l2.11-2.08c.41-.4.63-.96.59-1.54l-.17-2.97s0,0,0-.01l-.67-10.76,5.02-2.78,11.5,7.77c.48.33,1.08.43,1.64.27l2.84-.76c3.75-.96,7.65-1.44,11.51-1.41l2.86-.04c.56,0,1.09-.25,1.47-.67l9.06-10.17,5.52,1.5,2.66,13.36c.11.55.45,1.03.93,1.32l2.47,1.5c3.34,1.94,6.43,4.31,9.16,7.02l2.07,2.12c.41.41.96.63,1.55.6l13.77-.87,2.73,4.78-7.73,11.47c-.32.48-.42,1.08-.27,1.64l.76,2.83c.94,3.76,1.41,7.63,1.38,11.54l.03,2.86c0,.56.25,1.09.67,1.47l10.14,9.07-1.51,5.55-13.34,2.67c-.55.11-1.03.45-1.32.93l-1.5,2.48c-1.94,3.35-4.3,6.45-7,9.19l-2.11,2.08c-.41.41-.63.97-.59,1.55l.86,13.8-5.18,2.97-8.97-6.06-2.45-1.68c-.48-.33-1.09-.43-1.65-.28l-2.83.77c-3.76.95-7.61,1.39-11.54,1.4l-2.88.08c-.55.01-1.07.26-1.44.67l-9.06,10.15-5.53-1.51Z"/><path class="cls-2" d="M337.53,112.89c.06,4.15.57,8.28,1.52,12.32l-8.53,12.65c-.43.63-.46,1.45-.08,2.11l8.2,14.37c.38.66,1.11,1.05,1.86,1l15.22-.96c3.01,2.83,6.3,5.36,9.81,7.54l2.96,14.83c.15.74.7,1.34,1.44,1.54l15.67,4.26c.17.05.35.07.53.07.56,0,1.11-.24,1.49-.67l10.06-11.27c4.14-.06,8.27-.58,12.3-1.54l12.62,8.53c.63.43,1.45.46,2.11.08l13.96-8c.65-.37,1.04-1.07,1-1.82l-.65-15.18c2.83-3.03,5.37-6.33,7.56-9.85l14.81-2.98c.74-.15,1.34-.71,1.54-1.44l4.27-15.69c.2-.73-.03-1.51-.6-2.02l-11.25-10.07c-.06-4.16-.57-8.3-1.53-12.34l8.25-12.75c.41-.63.43-1.43.06-2.08l-7.98-13.97c-.37-.65-1.08-1.05-1.82-1.01l-15.14.66c-2.99-2.88-6.3-5.42-9.84-7.57l-2.96-14.81c-.15-.74-.7-1.34-1.44-1.54l-15.67-4.26c-.73-.2-1.51.03-2.02.6l-10.06,11.27c-4.14.06-8.27.57-12.3,1.54l-12.62-8.53c-.64-.43-1.47-.46-2.14-.06l-14.04,8.31c-.64.38-1.01,1.08-.98,1.82l.73,14.85c-2.88,3-5.42,6.31-7.57,9.86l-14.8,2.98c-.74.15-1.34.71-1.54,1.44l-4.27,15.69c-.2.73.03,1.51.6,2.02l11.25,10.07ZM353.36,89.33l1.49-2.48c1.94-3.35,4.31-6.45,7.02-9.19l2.08-2.05c.41-.4.62-.95.59-1.52l-.66-13.51,4.98-2.96,11.35,7.68c.48.33,1.08.43,1.64.27l2.84-.76c3.76-.96,7.61-1.44,11.53-1.41l2.86-.04c.56,0,1.09-.25,1.47-.67l9.06-10.17,5.53,1.51,2.66,13.36c.11.55.45,1.03.92,1.32l2.47,1.5c3.35,1.95,6.44,4.32,9.16,7.02l2.02,2.06c.4.4.94.63,1.51.6l13.73-.6,2.84,4.98-7.47,11.56c-.31.47-.4,1.06-.25,1.6l.74,2.77c.95,3.75,1.42,7.61,1.4,11.53l.03,2.86c0,.56.25,1.09.66,1.46l10.14,9.07-1.51,5.55-10.55,2.12-2.72.57c-.53.11-.99.43-1.28.89l-1.51,2.39c-2.04,3.38-4.44,6.53-7.1,9.33l-2.06,2.03c-.4.4-.62.95-.59,1.51l.59,13.75-4.87,2.8-11.43-7.73c-.48-.33-1.08-.43-1.64-.28l-2.83.76c-3.76.95-7.62,1.43-11.49,1.41h-2.86c-.57,0-1.11.25-1.49.67l-9.07,10.17-5.53-1.5-2.65-13.28c-.11-.54-.43-1.01-.89-1.3l-2.38-1.5c-3.36-2.03-6.5-4.44-9.3-7.1l-2.08-2.12c-.41-.41-.97-.63-1.56-.59l-13.77.87-2.96-5.18,7.73-11.46c.32-.48.42-1.08.27-1.64l-.76-2.84c-.95-3.76-1.42-7.64-1.4-11.54l-.03-2.86c0-.56-.25-1.09-.66-1.47l-10.11-9.05,1.51-5.55,13.34-2.68c.55-.11,1.03-.45,1.32-.93Z"/><path class="cls-2" d="M320,213.58c3.82-14.04-4.48-28.57-18.5-32.39-14.02-3.82-28.54,4.5-32.37,18.56-3.69,13.96,4.6,28.48,18.49,32.37,0,0,0,0,.01,0,2.31.63,4.62.93,6.9.93,11.6,0,22.26-7.74,25.46-19.47ZM290.4,222c-8.42-2.31-13.42-11.05-11.14-19.47,2.03-7.11,8.39-11.72,15.42-11.72,1.28,0,2.58.15,3.88.47.06.02.12.04.18.06,8.42,2.3,13.42,11.05,11.14,19.47-2.43,8.47-11,13.38-19.48,11.19Z"/><path class="cls-2" d="M389.56,137.11c2.3.63,4.63.94,6.95.94,4.54,0,9.02-1.18,13.06-3.5,6.11-3.5,10.5-9.18,12.35-15.98,3.84-14.02-4.44-28.55-18.48-32.39,0,0-.01,0-.02,0-6.79-1.85-13.9-.94-20.01,2.57-6.11,3.5-10.5,9.18-12.35,15.98-1.85,6.8-.95,13.92,2.54,20.04,3.49,6.12,9.16,10.51,15.95,12.35ZM388.62,97.87c3.68-2.11,7.96-2.66,12.04-1.54,4.09,1.11,7.5,3.75,9.6,7.43,2.1,3.68,2.65,7.97,1.53,12.06-2.31,8.44-11.05,13.45-19.48,11.17-4.09-1.11-7.49-3.75-9.59-7.43-2.1-3.68-2.65-7.97-1.53-12.06,1.12-4.1,3.76-7.51,7.44-9.62Z"/><path class="cls-2" d="M163.42,401.96c-1.13-1.13-2.65-1.76-4.25-1.76h0c-1.59,0-3.12.63-4.25,1.76-.5.5-12.25,12.39-15.88,25.16-1.75,6.15-.45,12.72,3.55,18.02,4.06,5.37,10.29,8.71,16.25,8.71.11,0,.21,0,.32,0,.11,0,.21,0,.32,0,5.97,0,12.2-3.34,16.25-8.71,4-5.3,5.3-11.87,3.55-18.02-3.63-12.76-15.38-24.66-15.88-25.16ZM166.17,437.9c-1.75,2.32-4.5,3.94-6.68,3.94-.11,0-.21,0-.32,0-.11,0-.21,0-.32,0-2.18,0-4.93-1.62-6.68-3.94-1.23-1.63-2.51-4.26-1.58-7.51,1.58-5.55,5.49-11.22,8.58-15.1,3.09,3.87,7.01,9.55,8.58,15.1.92,3.25-.35,5.87-1.58,7.5Z"/><path class="cls-2" d="M226.92,452.7v-2.92h39.15c3.31,0,6-2.69,6-6s-2.69-6-6-6h-39.15v-23.52h39.15c3.31,0,6-2.69,6-6s-2.69-6-6-6h-39.15v-1.58c0-13.11-10.66-23.77-23.77-23.77h-11.51v-15.14s0-.04,0-.07c20.76-11.51,34.85-33.64,34.85-59.01,0-37.18-30.25-67.43-67.44-67.43s-67.44,30.25-67.44,67.43c0,24.98,14,47.67,35.34,59.28v14.93h-11.52c-13.1,0-23.77,10.66-23.77,23.77v1.58h-38.72c-3.31,0-6,2.69-6,6s2.69,6,6,6h38.72v23.52h-38.72c-3.31,0-6,2.69-6,6s2.69,6,6,6h38.72v2.92c0,13.1,10.66,23.77,23.76,23.77h87.71c13.1,0,23.77-10.66,23.77-23.77ZM103.61,302.69c0-30.56,24.87-55.43,55.44-55.43s55.44,24.87,55.44,55.43-24.87,55.43-55.44,55.43c-5.19,0-10.36-.73-15.35-2.16-23.6-6.79-40.09-28.69-40.09-53.27ZM138.95,367.05c.48.15.95.3,1.43.44h0c6.07,1.74,12.35,2.63,18.66,2.63,7.18,0,14.1-1.14,20.59-3.23v10.01h-40.68v-9.86ZM103.67,452.7v-52.02c0-6.49,5.28-11.77,11.77-11.77h87.71c6.49,0,11.77,5.28,11.77,11.77v52.02c0,6.49-5.28,11.77-11.77,11.77h-87.71c-6.49,0-11.76-5.28-11.76-11.77Z"/><path class="cls-2" d="M159.05,346.98c9.08,0,16.47-7.39,16.47-16.47,0-6.86-4.23-12.75-10.22-15.22v-28.05c0-3.31-2.69-6-6-6s-6,2.69-6,6v27.87c-6.24,2.34-10.71,8.35-10.71,15.4,0,9.08,7.38,16.47,16.46,16.47ZM159.05,334.98c-2.46,0-4.46-2-4.46-4.47s2-4.46,4.46-4.46,4.47,2,4.47,4.46-2,4.47-4.47,4.47Z"/><path class="cls-2" d="M159.35,268.63c3.31,0,6-2.69,6-6v-3.81c0-3.31-2.69-6-6-6s-6,2.69-6,6v3.81c0,3.31,2.69,6,6,6Z"/><path class="cls-2" d="M193.95,288.95c1.02,0,2.05-.26,3-.81l3.3-1.91c2.87-1.66,3.85-5.33,2.19-8.2-1.66-2.87-5.33-3.85-8.2-2.19l-3.3,1.91c-2.87,1.66-3.85,5.33-2.19,8.2,1.11,1.92,3.13,3,5.2,3Z"/><path class="cls-2" d="M190.63,328.25l3.3,1.9c.94.54,1.97.8,2.99.8,2.07,0,4.09-1.08,5.2-3,1.65-2.87.67-6.54-2.2-8.19l-3.3-1.9c-2.87-1.65-6.54-.67-8.19,2.2-1.65,2.87-.67,6.54,2.2,8.19Z"/><path class="cls-2" d="M121.17,317.31l-3.3,1.9c-2.87,1.65-3.86,5.32-2.2,8.19,1.11,1.93,3.13,3,5.2,3,1.02,0,2.05-.26,2.99-.8l3.3-1.9c2.87-1.65,3.86-5.32,2.2-8.19-1.65-2.87-5.32-3.86-8.19-2.2Z"/><path class="cls-2" d="M127.47,277.21l-3.3-1.9c-2.87-1.65-6.54-.67-8.19,2.2-1.65,2.87-.67,6.54,2.2,8.19l3.3,1.9c.94.54,1.97.8,2.99.8,2.07,0,4.09-1.08,5.2-3,1.65-2.87.67-6.54-2.2-8.19Z"/><path class="cls-2" d="M308.91,577.59h-41.31l30.16-85.59c.63-1.73.38-3.7-.66-5.25-1.01-1.51-2.78-2.45-4.61-2.45h-57.46c-2.37,0-4.49,1.57-5.29,3.92l-41.13,127.21c-.54,1.68-.26,3.6.8,5.17,1.13,1.52,2.79,2.39,4.57,2.39h50.78l-15.32,95.11c-.44,2.7,1.07,5.33,3.59,6.28.78.38,1.45.38,1.99.38,2.07,0,3.95-1.11,4.93-2.9l73.79-135.69c.98-1.8.98-3.87,0-5.67-.99-1.82-2.8-2.9-4.85-2.9ZM256.94,618.3c.33-1.71-.11-3.42-1.2-4.7-.99-1.33-2.55-2.09-4.29-2.09h-49.74l37.37-115.73h45.46l-30.24,85.68c-.63,1.73-.38,3.69.66,5.25,1.01,1.51,2.78,2.45,4.61,2.45h39.75l-53.54,98.37,11.15-69.23Z"/></g></svg>