<?xml version="1.0" encoding="UTF-8"?><svg xmlns="http://www.w3.org/2000/svg" viewBox="0 0 800 800"><defs><style>.cls-1{fill:#c8ff08;}.cls-1,.cls-2{stroke-width:0px;}.cls-2{fill:#005e60;}</style></defs><g id="Background"><circle class="cls-1" cx="400" cy="400" r="400"/></g><g id="Design"><path class="cls-2" d="M625.52,457.27c-11.21-59.76-48.04-106.25-76.99-119.65-2.37-1.1-5.17-.54-6.94,1.38-1.77,1.92-2.09,4.76-.8,7.03,18.16,31.94.7,55.57-11.32,66.81-12.89,12.05-40.61,14.71-59.32,5.7-9.45-4.55-20.4-13.91-18.93-32.68,1.33-16.94,7.61-26.97,15.57-39.67,9.42-15.04,21.15-33.77,27.99-70.06,6.8-36.07-5-71.29-34.12-101.86-23.38-24.55-57.67-45.82-96.54-59.91-2.26-.82-4.79-.21-6.43,1.55-1.64,1.76-2.07,4.33-1.09,6.53,31.45,70.71,5.38,101.43-27.63,140.33-21.45,25.28-45.58,53.71-53.86,97.13-23.78-17.07-37.87-40.32-38.02-40.57-1.11-1.86-3.14-2.95-5.31-2.92-2.17.06-4.14,1.28-5.15,3.2-45.49,86.11-58.38,162.48-38.31,226.98,16.46,52.91,55.28,96.62,112.27,126.41.89.46,1.84.68,2.77.68,2.16,0,4.25-1.17,5.32-3.22,1.54-2.94.4-6.56-2.54-8.1-37.72-19.71-86.8-56.42-106.37-119.34-18.4-59.14-7.35-129.38,32.86-208.9,7.7,10.5,22.75,28.33,43.82,41.05,1.73,1.05,3.88,1.15,5.7.27,1.82-.88,3.08-2.62,3.35-4.63,5.93-45.25,29.66-73.22,52.61-100.27,30.98-36.51,60.35-71.12,34.8-139.88,31.8,13.24,59.53,31.39,79.06,51.89,26.72,28.05,37.15,58.79,31.01,91.36-6.42,34.07-17.02,50.99-26.37,65.92-8.48,13.54-15.8,25.22-17.36,45.1-1.56,19.92,7.56,35.7,25.69,44.43,23.05,11.1,56.35,7.55,72.72-7.75,19.47-18.21,26.72-40.38,21.14-62.87,21.15,17.92,46.09,53.67,54.92,100.75,8.32,44.34,4.42,111.54-61.42,179.94-2.3,2.39-2.23,6.19.16,8.48,2.39,2.3,6.19,2.23,8.48-.16,69.38-72.08,73.41-143.36,64.57-190.47Z"/><path class="cls-2" d="M513.15,535.92c-2.51.11-4.69,1.77-5.46,4.17-11.04,34.61-25.37,49.43-47.85,49.43-.19,0-.38,0-.58,0-25.68-.29-52.28-24.23-60.57-54.52-7.9-28.86-19.98-61.76-63.75-86.85-2.07-1.19-4.64-1.03-6.55.38-1.92,1.42-2.81,3.83-2.28,6.16,6.38,28.01-.18,50.91-7.12,75.15-10.71,37.4-21.79,76.08,21.25,129.67,1.19,1.48,2.93,2.24,4.68,2.24,1.32,0,2.65-.43,3.75-1.32,2.58-2.07,3-5.85.92-8.43-39.15-48.75-29.4-82.8-19.08-118.86,6-20.95,12.17-42.51,9.54-67.57,30.83,21.58,40.21,47.59,47.05,72.58,9.62,35.18,41.25,63.01,72.01,63.35.23,0,.46,0,.69,0,29.17,0,44.48-20.91,53.5-41.98,13.24,45.8-8.21,71.35-29.95,91.85-2.41,2.27-2.52,6.07-.25,8.48,2.27,2.41,6.07,2.52,8.48.25,13.02-12.29,26.03-26.28,32.95-45.24,8.11-22.23,6.27-46.86-5.61-75.29-.97-2.32-3.28-3.78-5.8-3.68Z"/></g></svg>