<?xml version="1.0" encoding="UTF-8"?><svg xmlns="http://www.w3.org/2000/svg" viewBox="0 0 800 800"><defs><style>.cls-1{fill:#c8ff08;}.cls-1,.cls-2{stroke-width:0px;}.cls-2{fill:#005e60;}</style></defs><g id="Background"><circle class="cls-1" cx="400" cy="400" r="400"/></g><g id="Design"><path class="cls-2" d="M82.1,415.89c-18.46-4.58-30.47-22.27-27.94-41.15,2.73-20.39,21.54-34.76,41.93-32.03,4.24.57,8.3,1.83,12.06,3.76,2.95,1.51,6.56.34,8.08-2.61,1.51-2.95.34-6.56-2.61-8.08-4.98-2.55-10.34-4.22-15.94-4.97-3.3-.44-6.57-.54-9.77-.33,1.13-10.5,6.19-20.13,14.39-27.05.21-.18.43-.34.64-.51l10.18,13.99c1.17,1.61,3,2.47,4.86,2.47,1.22,0,2.46-.37,3.52-1.15,2.68-1.95,3.27-5.7,1.32-8.38l-9.51-13.08c5.87-2.39,12.25-3.37,18.72-2.8,10.72.95,20.42,6.05,27.31,14.35,2.97,3.58,5.28,7.59,6.87,11.93,1.14,3.11,4.59,4.7,7.7,3.57,3.11-1.14,4.71-4.59,3.56-7.7-2.06-5.62-5.06-10.82-8.9-15.45-8.95-10.79-21.55-17.41-35.48-18.64-9.41-.84-18.66.86-27,4.82l-31.03-42.67c-1.95-2.68-5.7-3.27-8.38-1.32-2.68,1.95-3.27,5.7-1.32,8.38l30.53,41.98c-.44.35-.88.69-1.32,1.06-11.55,9.75-18.27,23.64-18.85,38.6-17.36,5.75-30.86,20.97-33.45,40.28-3.34,24.95,12.54,48.34,36.94,54.39.48.12.97.18,1.45.18,2.69,0,5.14-1.83,5.82-4.56.8-3.22-1.16-6.47-4.38-7.27Z"/><path class="cls-2" d="M174.86,300.74c1.47,2.97,5.08,4.18,8.04,2.7,5.88-2.92,12.21-4.4,18.83-4.4,23.36,0,42.37,19.01,42.37,42.37,0,12.04-5.15,23.55-14.13,31.58-2.47,2.21-2.68,6-.47,8.47,1.19,1.32,2.83,2,4.47,2,1.42,0,2.85-.5,4-1.53,3.83-3.43,7.1-7.36,9.79-11.64,8.44,7.56,13.91,18.01,15.22,29.38,2.19,19.01-7.73,37.75-24.68,46.62-2.94,1.54-4.07,5.16-2.53,8.1,1.07,2.05,3.16,3.22,5.32,3.22.94,0,1.89-.22,2.78-.68,21.32-11.16,33.79-34.71,31.04-58.62-1.78-15.45-9.67-29.56-21.79-39.19,1.95-5.64,2.99-11.62,2.99-17.7,0-29.98-24.39-54.37-54.37-54.37-8.49,0-16.62,1.9-24.17,5.65-2.97,1.47-4.18,5.08-2.7,8.04Z"/><path class="cls-2" d="M217.15,427.5c6.51-8.59,9.24-19.21,7.66-29.88-.48-3.28-3.53-5.55-6.81-5.06-3.28.48-5.54,3.53-5.06,6.81,1.1,7.46-.8,14.87-5.35,20.88-4.49,5.92-11.02,9.75-18.38,10.76-7.36,1.01-14.68-.9-20.6-5.39-4.04-3.06-7.16-7.15-9.02-11.82-1.23-3.08-4.72-4.58-7.8-3.35-3.08,1.23-4.58,4.72-3.35,7.8,2.68,6.7,7.14,12.56,12.92,16.94,6.81,5.16,14.91,7.94,23.3,8.08-2.53,20.96-20.42,37.27-42.05,37.27-2.66,0-5.26-.26-7.79-.73l6.87-25.75c.85-3.2-1.05-6.49-4.25-7.34-3.2-.85-6.49,1.05-7.34,4.25l-6.66,24.97c-13.75-7.01-23.2-21.3-23.2-37.77,0-6.62,1.48-12.95,4.4-18.83,1.47-2.97.26-6.57-2.7-8.04-2.97-1.48-6.57-.27-8.04,2.7-3.75,7.55-5.65,15.68-5.65,24.17,0,22.03,13.18,41.03,32.05,49.56l-9.18,34.42c-.85,3.2,1.05,6.49,4.25,7.34.52.14,1.04.2,1.55.2,2.65,0,5.08-1.77,5.79-4.46l9.01-33.8c3.52.72,7.16,1.1,10.89,1.1,28.83,0,52.47-22.55,54.25-50.94,8.06-2.4,15.12-7.27,20.29-14.1Z"/><path class="cls-2" d="M130.64,356.29c3.66-1.8,7.75-2.58,11.83-2.26,3.31.28,6.19-2.2,6.46-5.5.26-3.3-2.2-6.2-5.5-6.46-6.24-.5-12.5.7-18.1,3.46-8.23,4.06-14.34,11.07-17.18,19.74-2.85,8.69-2.09,17.98,2.15,26.17,4.27,8.25,11.53,14.36,20.45,17.21.61.19,1.22.29,1.83.29,2.54,0,4.9-1.63,5.71-4.18,1.01-3.16-.73-6.53-3.89-7.54-5.87-1.87-10.64-5.88-13.44-11.29-2.75-5.31-3.25-11.31-1.41-16.91,1.83-5.58,5.77-10.09,11.09-12.72Z"/><path class="cls-2" d="M199.03,385.69c.89.46,1.84.69,2.78.69,2.16,0,4.25-1.17,5.32-3.22,3.87-7.4,4.6-15.79,2.05-23.63-2.52-7.76-7.96-14.04-15.32-17.68-7.46-3.69-15.96-4.23-23.93-1.51-3.14,1.07-4.81,4.48-3.75,7.61,1.07,3.14,4.48,4.82,7.61,3.75,4.93-1.68,10.17-1.36,14.74.91,4.44,2.2,7.72,5.98,9.23,10.64,1.54,4.74,1.09,9.84-1.27,14.35-1.54,2.94-.4,6.56,2.53,8.1Z"/><path class="cls-2" d="M71.11,453.26l-11.39,11.35c-2.35,2.34-2.35,6.14-.01,8.49,1.17,1.18,2.71,1.76,4.25,1.76s3.06-.58,4.24-1.75l11.39-11.35c2.35-2.34,2.35-6.14.01-8.49-2.34-2.35-6.14-2.35-8.49-.01Z"/><path class="cls-2" d="M209.85,444.72c-2.58,2.08-2.98,5.86-.9,8.44l40.79,50.58c1.19,1.47,2.92,2.23,4.67,2.23,1.32,0,2.65-.43,3.76-1.33,2.58-2.08,2.98-5.86.9-8.44l-40.79-50.58c-2.08-2.58-5.86-2.99-8.44-.9Z"/><path class="cls-2" d="M222.73,499.25c1.32,0,2.65-.43,3.76-1.33,2.58-2.08,2.98-5.86.9-8.44l-20.43-25.33c-2.08-2.58-5.86-2.99-8.44-.9-2.58,2.08-2.98,5.86-.9,8.44l20.43,25.33c1.19,1.47,2.92,2.23,4.67,2.23Z"/><path class="cls-2" d="M176.26,278.99c.38.07.76.11,1.13.11,2.82,0,5.34-2,5.89-4.88l7.3-38.38c.62-3.25-1.52-6.4-4.77-7.02-3.25-.62-6.4,1.52-7.02,4.77l-7.3,38.38c-.62,3.25,1.52,6.4,4.77,7.02Z"/><path class="cls-2" d="M359.29,164.29c3.31,0,6-2.69,6-6v-62.82c0-3.31-2.69-6-6-6s-6,2.69-6,6v62.82c0,3.31,2.69,6,6,6Z"/><path class="cls-2" d="M396.25,174.17c3.31,0,6-2.69,6-6v-47.29c0-3.31-2.69-6-6-6s-6,2.69-6,6v47.29c0,3.31,2.69,6,6,6Z"/><path class="cls-2" d="M432.3,139.59c3.31,0,6-2.69,6-6v-49.41c0-3.31-2.69-6-6-6s-6,2.69-6,6v49.41c0,3.31,2.69,6,6,6Z"/><path class="cls-2" d="M716.71,304.92c-2.34-2.34-6.14-2.34-8.49,0l-18.9,18.9h-30.01l-14.71-14.71,10.51-20.32,11.14,6.55c.96.56,2,.83,3.04.83,2.06,0,4.06-1.06,5.18-2.96,1.68-2.86.73-6.53-2.13-8.21l-34-20c-2.86-1.68-6.53-.73-8.21,2.13-1.68,2.86-.73,6.53,2.13,8.21l12.5,7.35-10.91,21.1-31.14-.63s-.08,0-.12,0h-12.62l26.99-91.28h95.52c3.31,0,6-2.69,6-6s-2.69-6-6-6h-91.98l5.61-18.98h61.19c3.31,0,6-2.69,6-6s-2.69-6-6-6h-65.67c-2.66,0-5,1.75-5.75,4.3l-38.43,129.96h-21.95c-17.21,0-31.2,14-31.2,31.2v16.11c0,3.31,2.69,6,6,6s6-2.69,6-6v-16.11c0-10.59,8.61-19.2,19.2-19.2h26.41s.02,0,.03,0c0,0,.02,0,.02,0h20.57l31.81.64,18.25,18.25c1.12,1.13,2.65,1.76,4.24,1.76h34.98c1.59,0,3.12-.63,4.24-1.76l20.66-20.66c2.34-2.34,2.34-6.14,0-8.49Z"/><path class="cls-2" d="M587.09,344.48c-34.63,0-62.8,28.17-62.8,62.8s28.17,62.8,62.8,62.8,62.8-28.17,62.8-62.8-28.17-62.8-62.8-62.8ZM587.09,458.08c-28.01,0-50.8-22.79-50.8-50.8s22.79-50.8,50.8-50.8,50.8,22.79,50.8,50.8-22.79,50.8-50.8,50.8Z"/><path class="cls-2" d="M587.09,375.46c-17.55,0-31.82,14.27-31.82,31.82s14.27,31.82,31.82,31.82,31.82-14.27,31.82-31.82-14.27-31.82-31.82-31.82ZM587.09,427.1c-10.93,0-19.82-8.89-19.82-19.82s8.89-19.82,19.82-19.82,19.82,8.89,19.82,19.82-8.89,19.82-19.82,19.82Z"/><path class="cls-2" d="M692.13,421.94h-27.58c-3.31,0-6,2.69-6,6s2.69,6,6,6h27.58c3.31,0,6-2.69,6-6s-2.69-6-6-6Z"/><path class="cls-2" d="M267.25,288.43c.72,1.09,1.74,1.99,2.95,2.59,1.21.6,2.55.86,3.84.75,1.29-.09,2.55-.53,3.68-1.29l23.29-15.93c2.65-1.82,5.86.09,8.08,2.01,1.42,1.22,2.79,2.79,3.97,4.54,1.18,1.75,2.16,3.65,2.83,5.51.41,1.15,2.34,7-.5,8.94l-23.24,15.92c-1.1.74-1.99,1.77-2.56,2.97-.56,1.17-.8,2.5-.69,3.88.11,1.31.57,2.57,1.31,3.63.74,1.06,1.76,1.93,3,2.51,1.98.92,4.11,1.65,6.34,2.18,2.86.68,5.88,1.01,8.96,1.01,6.33,0,12.92-1.41,18.99-4.15,9.7-4.38,17.36-11.77,21.56-20.82,1.08-2.33,1.95-4.79,2.57-7.32.04-.18.08-.36.11-.54.47-3.12.55-6.37.22-9.71v-.02c-.12-1.18-.29-2.37-.5-3.56.18-.24.34-.5.49-.78,1.29-2.48,2.04-3.3,2.22-3.47,0,0,.01,0,.02-.01l117.58-73.77c5.7-3.31,11.07-5.96,16.39-8.08.32-.07.65-.17.96-.29,3.96-1.57,7.19-2.54,10.05-3.02,3.16,1.7,6.44,3.02,9.77,3.88.22.06.45.1.67.13,2.08.29,4.14.43,6.15.43,3.84,0,7.56-.52,11.1-1.55,5.5-1.61,10.62-4.48,15.23-8.54,5.82-5.13,10.29-11.53,12.92-18.5,2.64-7.02,3.32-14.46,1.97-21.48-.25-1.32-.84-2.54-1.67-3.49-.86-1-1.98-1.76-3.24-2.2-1.28-.44-2.64-.54-3.9-.28-1.28.25-2.48.85-3.51,1.74l-21.13,18.7c-2.41,2.13-5.83.64-8.27-.99-1.56-1.04-3.11-2.42-4.5-4.01-1.39-1.59-2.6-3.36-3.49-5.12-.55-1.09-3.19-6.65-.61-8.94l21.07-18.68c1.01-.88,1.76-2.01,2.18-3.25.42-1.24.5-2.58.21-3.96-.28-1.28-.88-2.46-1.76-3.45-.86-.95-1.98-1.68-3.28-2.1-2.08-.67-4.29-1.13-6.56-1.38-8.93-.97-18.9,1.42-27.34,6.58-9.08,5.55-15.76,13.84-18.81,23.34-.78,2.45-1.34,5-1.64,7.58-.02.18-.03.36-.04.55-.06,2.23.1,4.5.46,6.81-.27.34-.54.67-.83.99-2.15,1.91-4.44,3.76-6.79,5.53-.02.02-.05.04-.07.06-3.78,2.83-7.76,5.45-12.15,8-.06.03-.12.07-.17.11l-114.73,71.89c-3.51,2.03-6.86,3.51-9.98,4.41-2.12-1.31-4.32-2.42-6.56-3.31-.21-.08-.43-.16-.65-.21-5.9-1.58-11.71-1.92-17.26-1.03-5.66.91-11.1,3.13-16.17,6.59-6.42,4.37-11.64,10.16-15.12,16.75-3.49,6.64-5.09,13.93-4.63,21.08.08,1.33.52,2.62,1.22,3.67ZM483.79,142.66c2.17-6.76,7.01-12.71,13.64-16.76,4.62-2.83,9.79-4.54,14.75-4.94l-13.5,11.96c-6.04,5.36-6.83,14.09-2.12,23.35,1.36,2.67,3.09,5.22,5.16,7.58,2.1,2.41,4.42,4.46,6.88,6.1,8.17,5.44,16.72,5.43,22.87-.01l13.87-12.27c-.3,2.04-.83,4.07-1.58,6.07-1.94,5.14-5.26,9.89-9.62,13.73-3.28,2.89-6.87,4.92-10.66,6.03-3.66,1.07-7.66,1.34-11.9.8-12.81-3.45-25.15-16.62-28.19-30.13,0,0,0-.04,0-.04-.49-2.18-.72-4.34-.69-6.42.22-1.72.59-3.42,1.11-5.04ZM342.68,250.72l114.73-71.89c4.79-2.78,9.13-5.65,13.28-8.75.02-.02.05-.04.07-.06,1.47-1.1,2.91-2.24,4.32-3.4,2.87,6.07,7,11.73,11.89,16.5-.46.17-.93.34-1.41.52-.31.07-.62.16-.93.28-6.22,2.41-12.45,5.45-19.03,9.28-.06.03-.11.07-.17.1l-117.6,73.78c-.35.21-.7.46-1.04.72-2.54-5.14-5.88-9.96-9.77-14.12,1.78-.83,3.6-1.77,5.46-2.85.06-.04.12-.07.18-.11ZM281.27,269.28c2.56-4.86,6.45-9.16,11.25-12.42,3.61-2.46,7.42-4.03,11.33-4.66,3.77-.61,7.77-.38,11.91.69,12.28,5.02,22.89,19.61,24.23,33.4,0,0,0,.04,0,.04.22,2.23.18,4.4-.11,6.46-.43,1.68-1.01,3.32-1.73,4.86-2.99,6.43-8.54,11.74-15.62,14.94-4.94,2.23-10.28,3.28-15.25,3.07l14.88-10.2c6.66-4.57,8.53-13.13,5.01-22.91-1-2.78-2.44-5.61-4.17-8.17-1.79-2.65-3.83-4.97-6.07-6.9-7.43-6.41-15.91-7.47-22.7-2.83l-15.29,10.45c.55-1.99,1.33-3.94,2.32-5.83Z"/><path class="cls-2" d="M583.3,547.17h-155.63l15.39-58.74,10.88,22.7c3.46,7.22,10.86,11.88,18.85,11.88,1.65,0,3.29-.19,4.85-.56l50.58-12.01c5.43-1.28,10.03-4.6,12.96-9.35,2.94-4.76,3.84-10.38,2.55-15.82-1.29-5.44-4.61-10.05-9.37-12.98-4.76-2.93-10.37-3.83-15.81-2.54l-34.19,8.11-23.28-48.57c-.7-1.44-1.61-2.83-2.73-4.16-.19-.46-.44-.9-.75-1.31-.68-.89-1.58-1.57-2.59-1.96-2.22-1.74-4.66-2.98-7.28-3.68l-47.55-12.91c-3.45-.94-7.12-.97-10.6-.1l-62.51,15.77c-6.71,1.68-12.14,6.57-14.53,13.08l-18.85,51.43c-1.93,5.25-1.7,10.93.65,16,2.35,5.06,6.52,8.91,11.77,10.84,5.25,1.93,10.93,1.69,16-.66,5.06-2.35,8.91-6.54,10.84-11.78l14.65-39.94c.2-.47,1.12-1.29,1.59-1.44l21.48-5.42-25.23,94.11h-138.12c-3.31,0-6,2.69-6,6v148c0,3.31,2.69,6,6,6s6-2.69,6-6v-97.49h116.97l-1.81,6.75c-.18.65-1.27,1.96-1.91,2.28l-74.18,36.13c-11.82,5.63-16.86,19.84-11.23,31.68,3.93,8.23,12.35,13.55,21.47,13.55,3.54,0,6.98-.78,10.24-2.33l85.53-41.53c6.31-3,10.96-8.59,12.75-15.32l8.35-31.2h18.88l23.61,33.79c.87,1.23,1.97,3.92,2.23,5.47l14.33,83.01c1.92,11.5,11.77,19.85,23.41,19.85,1.27,0,2.54-.1,3.93-.32,6.26-1.04,11.74-4.46,15.42-9.63,3.69-5.17,5.15-11.46,4.1-17.74l-15.71-91.31c-.59-3.48-1.96-6.84-3.97-9.7l-9.38-13.42h120.99v97.49c0,3.31,2.69,6,6,6s6-2.69,6-6v-148c0-3.31-2.69-6-6-6ZM528.38,591.69l20.25-32.51h17.86l-20.25,32.51h-17.86ZM497.38,591.69l20.25-32.51h16.86l-20.25,32.51h-16.86ZM465.38,591.69l20.25-32.51h17.86l-20.25,32.51h-17.86ZM447.93,591.69l-7.49-10.71,13.24-21.8h17.82l-20.25,32.51h-3.31ZM425.63,559.79c-.1-.14-.19-.36-.27-.61h14.27l-6.71,11.05-7.29-10.44ZM285.38,591.69l20.25-32.51h17.86l-20.25,32.51h-17.86ZM254.38,591.69l20.25-32.51h16.86l-20.25,32.51h-16.86ZM222.38,591.69l20.25-32.51h17.86l-20.25,32.51h-17.86ZM213.3,583.57v-24.39h15.19l-15.19,24.39ZM317.38,591.69l20.25-32.51h4.57l-8.72,32.51h-16.11ZM382.67,591.69l2.02-7.53,5.26,7.53h-7.28ZM473.54,720.11c.52,3.09-.2,6.21-2.03,8.76-1.83,2.56-4.54,4.25-7.58,4.76-.71.11-1.37.17-2.01.17-5.76,0-10.63-4.13-11.58-9.86l-14.33-83.01c-.55-3.31-2.35-7.69-4.24-10.36l-42.1-60.24c-1.74-2.5-4.22-3.89-6.81-3.89-.42,0-.84.04-1.26.11-3.03.53-5.39,2.89-6.3,6.3l-15.77,58.95c-.88,3.33-3.18,6.09-6.35,7.6l-85.53,41.53c-1.6.76-3.29,1.15-5.04,1.15-4.51,0-8.69-2.64-10.63-6.71-2.79-5.86-.29-12.89,5.61-15.7l74.19-36.13c3.73-1.79,7.22-5.99,8.28-9.98l43.71-163.01c.85-3.18.11-6.35-1.98-8.46-2.09-2.11-5.24-2.88-8.4-2.07l-27.13,6.84c-4.25,1.07-8.43,4.83-9.93,8.94l-14.65,39.94c-.82,2.24-2.46,4.03-4.62,5.03-2.16,1-4.58,1.1-6.81.28-2.24-.82-4.02-2.47-5.02-4.62-1-2.16-1.1-4.57-.27-6.82l18.85-51.44c1.02-2.78,3.33-4.86,6.19-5.58l62.52-15.77c1.46-.37,3.07-.35,4.52.04l47.57,12.92c1.28.34,2.49,1.03,3.6,2.04.09.1.18.2.27.29.82.82,1.44,1.64,1.8,2.4l23.47,48.97c2.27,4.73,7.84,7.38,12.95,6.17l34.63-8.21s0,0,0,0c2.32-.55,4.71-.17,6.73,1.08,2.02,1.25,3.44,3.21,3.99,5.53.55,2.32.17,4.72-1.09,6.75-1.25,2.02-3.2,3.43-5.51,3.97l-50.6,12.01c-.65.16-1.35.24-2.07.24-3.4,0-6.56-1.99-8.03-5.07l-16.06-33.49c-2.41-5.04-6.47-5.05-7.66-4.94-1.19.12-5.17.91-6.56,6.29l-20.96,80.03c-1.07,4-.11,9.39,2.28,12.82l40.06,57.33c.98,1.39,1.67,3.1,1.97,4.83l15.71,91.3ZM560.38,591.69l16.92-27.16v27.16h-16.92Z"/><path class="cls-2" d="M455.85,334.04c-18.63-10.35-42.23-3.59-52.6,15.07-10.34,18.66-3.59,42.25,15.05,52.59,5.82,3.23,12.23,4.88,18.71,4.88,3.58,0,7.18-.5,10.72-1.52,9.94-2.85,18.17-9.39,23.18-18.43,10.35-18.65,3.59-42.25-15.06-52.6ZM460.42,380.82c-3.46,6.24-9.14,10.75-16,12.72-6.85,1.97-14.06,1.14-20.3-2.32,0,0,0,0,0,0-12.86-7.13-17.51-23.41-10.38-36.28,4.88-8.78,14.01-13.75,23.4-13.75,4.37,0,8.8,1.08,12.88,3.34,12.87,7.14,17.53,23.42,10.39,36.28Z"/></g></svg>