<?xml version="1.0" encoding="UTF-8"?><svg xmlns="http://www.w3.org/2000/svg" viewBox="0 0 800 800"><defs><style>.cls-1{fill:#c8ff08;}.cls-1,.cls-2{stroke-width:0px;}.cls-2{fill:#005e60;}</style></defs><g id="Background"><circle class="cls-1" cx="400" cy="400" r="400"/></g><g id="Design"><path class="cls-2" d="M502.02,349.17h-78.71l.48-1.34,84.16-233.36c.7-1.94.42-4.1-.76-5.77-1.17-1.69-3.1-2.7-5.17-2.7h-102.34c-2.72,0-5.12,1.73-5.98,4.31l-102.35,301.66c-.64,1.91-.32,4.03.86,5.68,1.18,1.65,3.1,2.63,5.12,2.63h94.95l-62.76,293.18c-.5,2.98,1.24,5.92,4.14,6.94.66.24,1.37.36,2.09.36,2.28,0,4.38-1.23,5.5-3.22l166.23-358.9c1.13-2.02,1.11-4.43-.01-6.35-1.13-1.93-3.22-3.13-5.45-3.13ZM490.44,363.2l-143.69,320.63,59.16-268.88c.3-1.78-.22-3.64-1.42-5.06-1.2-1.42-2.95-2.23-4.81-2.23h-93.59l.45-1.32,97.7-287.71h88.78l-.48,1.34-84.16,233.36c-.71,1.93-.42,4.09.76,5.78,1.18,1.69,3.11,2.69,5.17,2.69h76.77l-.63,1.41Z"/></g></svg>