<?xml version="1.0" encoding="UTF-8"?><svg xmlns="http://www.w3.org/2000/svg" viewBox="0 0 800 800"><defs><style>.cls-1{fill:#c8ff08;}.cls-1,.cls-2{stroke-width:0px;}.cls-2{fill:#005e60;}</style></defs><g id="Background"><circle class="cls-1" cx="400" cy="400" r="400"/></g><g id="Design"><path class="cls-2" d="M603.32,122.81h-15.24v-26.45c0-8.47-6.89-15.36-15.36-15.36s-15.36,6.89-15.36,15.36v28.62c-.26.16-.51.33-.75.51-5.45,4.06-26.02,17.33-61.77,17.33s-55.26-12.6-61.32-17v-29.46c0-8.47-6.89-15.36-15.36-15.36s-15.36,6.89-15.36,15.36v26.45h-16.44c-7.54,0-13.68,6.14-13.68,13.68v57.78c0,3.65,1.42,7.09,4.01,9.67.11.11.22.21.33.31l61.59,52.95c1.09.94,2.48,1.45,3.91,1.45h26.16v21.2c0,3.28.72,6.51,2.08,9.48-.13,0-.26-.02-.39-.02-4.09,0-7.94,1.59-10.84,4.49l-10.57,10.57c-2.9,2.89-4.49,6.74-4.49,10.84,0,1.63.26,3.22.75,4.74-4.4-.43-8.96.41-13.12,2.68-11.03,6.03-15.1,19.91-9.08,30.94l14.95,27.36c10.6,19.41,30.97,31.46,53.15,31.46,10.05,0,20.04-2.56,28.89-7.39,29.25-15.98,40.05-52.79,24.08-82.02-.16-.29-.32-.58-.5-.86l-29.32-48.61v-14.86h32.88c1.44,0,2.82-.51,3.91-1.45l61.59-52.95c.11-.1.22-.2.33-.31,2.58-2.58,4.01-6.02,4.01-9.67v-57.78c0-7.54-6.14-13.68-13.68-13.68ZM572.72,93c1.85,0,3.36,1.51,3.36,3.36v26.45h-6.72v-26.45c0-1.85,1.51-3.36,3.36-3.36ZM414.8,96.36c0-1.85,1.51-3.36,3.36-3.36s3.36,1.51,3.36,3.36v26.45h-6.72v-26.45ZM495.09,258.65c.02.16.03.32.03.47,0,2.21-1.8,4-4,4s-4-1.8-4-4c0-.16.02-.32.03-.47h7.94ZM484.01,311.62l20.23,33.54c3.66,7.11.95,15.98-6.09,19.82-7.19,3.93-16.23,1.27-20.16-5.91l-14.95-27.36c-.26-.47-.53-.92-.82-1.37,3.17-.5,6.1-1.97,8.41-4.28l10.57-10.57c1.16-1.16,2.09-2.47,2.81-3.87ZM457.45,312.86l10.57-10.57c.65-.65,1.44-.98,2.35-.98s1.71.33,2.35.98c1.3,1.3,1.3,3.41,0,4.71l-10.57,10.57c-.65.65-1.44.98-2.35.98s-1.71-.33-2.35-.98-.98-1.44-.98-2.35.33-1.71.98-2.35ZM533.32,328.31c.08.13.15.25.23.4,12.81,23.45,4.16,52.94-19.29,65.75-7.09,3.88-15.09,5.92-23.14,5.92-17.79,0-34.12-9.66-42.61-25.22l-14.95-27.36c-2.86-5.23-.93-11.8,4.3-14.66,5.23-2.85,11.8-.93,14.66,4.3l14.95,27.36c7.1,12.99,23.44,17.79,36.44,10.69,12.81-7,17.69-23.19,10.88-36.1-.05-.1-.11-.2-.17-.3l-32.39-53.69c-1.02-1.68-1.55-3.61-1.55-5.58v-11.43c2.57,2.88,6.29,4.7,10.44,4.7,4.56,0,8.6-2.2,11.16-5.58v7.64c0,1.09.3,2.16.86,3.1l30.18,50.03ZM605,194.27c0,.4-.14.78-.39,1.08l-59.67,51.3h-100.19l-59.67-51.3c-.25-.3-.39-.68-.39-1.08v-57.78c0-.93.75-1.68,1.68-1.68h38.57c.36,0,.7.11.97.31,6.2,4.62,29.5,19.71,68.94,19.71s62.74-15.08,68.94-19.71c.26-.2.61-.31.97-.31h38.57c.93,0,1.68.75,1.68,1.68v57.78Z"/><path class="cls-2" d="M393.17,505.26h-21.95l-38.43-129.96c-.75-2.55-3.1-4.3-5.75-4.3h-155.83c-3.31,0-6,2.69-6,6v128.26h-22.28c-3.31,0-6,2.69-6,6v30.98c0,3.31,2.69,6,6,6s6-2.69,6-6v-24.98h22.28c3.31,0,6-2.69,6-6v-128.26h145.35l5.65,19.1c-.38-.07-.77-.12-1.17-.12h-124.84c-3.31,0-6,2.69-6,6v103.28c0,1.59.63,3.12,1.76,4.24l20.66,20.66c1.12,1.12,2.65,1.76,4.24,1.76h68.98c1.59,0,3.12-.63,4.24-1.76l18.25-18.25,31.81-.64h20.5s.02,0,.04,0h26.5c10.59,0,19.2,8.61,19.2,19.2v16.11c0,3.31,2.69,6,6,6s6-2.69,6-6v-16.11c0-17.21-14-31.2-31.2-31.2ZM346.08,505.26s-.08,0-.12,0l-34.29.69c-1.55.03-3.03.66-4.12,1.76l-18.2,18.2h-64.01l-17.14-17.14v-94.79h118.84c1.63,0,3.1-.65,4.18-1.7l27.49,92.98h-12.62Z"/><path class="cls-2" d="M277.79,502.86h-37.27l-8.96-34.76c-.83-3.21-4.1-5.14-7.31-4.31-3.21.83-5.14,4.1-4.31,7.31l10.13,39.26c.68,2.65,3.07,4.5,5.81,4.5h41.92c3.31,0,6-2.69,6-6s-2.69-6-6-6Z"/><path class="cls-2" d="M539.99,647.38h-65.6v-135.22c0-3.31-2.69-6-6-6h-19.05c-3.31,0-6,2.69-6,6v141.22c0,3.31,2.69,6,6,6h90.64c3.31,0,6-2.69,6-6s-2.69-6-6-6ZM462.4,647.38h-7.05v-129.22h7.05v129.22Z"/><path class="cls-2" d="M179.07,546.57c-34.63,0-62.8,28.17-62.8,62.8s28.17,62.8,62.8,62.8,62.8-28.17,62.8-62.8-28.17-62.8-62.8-62.8ZM179.07,660.18c-28.01,0-50.8-22.79-50.8-50.8s22.79-50.8,50.8-50.8,50.8,22.79,50.8,50.8-22.79,50.8-50.8,50.8Z"/><path class="cls-2" d="M179.07,577.56c-17.55,0-31.82,14.27-31.82,31.82s14.27,31.82,31.82,31.82,31.82-14.27,31.82-31.82-14.27-31.82-31.82-31.82ZM179.07,629.19c-10.93,0-19.82-8.89-19.82-19.82s8.89-19.82,19.82-19.82,19.82,8.89,19.82,19.82-8.89,19.82-19.82,19.82Z"/><path class="cls-2" d="M361.57,546.57c-34.63,0-62.8,28.17-62.8,62.8s28.17,62.8,62.8,62.8,62.8-28.17,62.8-62.8-28.17-62.8-62.8-62.8ZM361.57,660.18c-28.01,0-50.8-22.79-50.8-50.8s22.79-50.8,50.8-50.8,50.8,22.79,50.8,50.8-22.79,50.8-50.8,50.8Z"/><path class="cls-2" d="M361.57,577.56c-17.55,0-31.82,14.27-31.82,31.82s14.27,31.82,31.82,31.82,31.82-14.27,31.82-31.82-14.27-31.82-31.82-31.82ZM361.57,629.19c-10.93,0-19.82-8.89-19.82-19.82s8.89-19.82,19.82-19.82,19.82,8.89,19.82,19.82-8.89,19.82-19.82,19.82Z"/><path class="cls-2" d="M284.11,624.03h-27.58c-3.31,0-6,2.69-6,6s2.69,6,6,6h27.58c3.31,0,6-2.69,6-6s-2.69-6-6-6Z"/><path class="cls-2" d="M203.74,189.26c-2.34-2.34-6.14-2.34-8.49,0s-2.34,6.14,0,8.49l400.5,400.5c1.17,1.17,2.71,1.76,4.24,1.76s3.07-.59,4.24-1.76c2.34-2.34,2.34-6.14,0-8.49L203.74,189.26Z"/></g></svg>