<?xml version="1.0" encoding="UTF-8"?><svg xmlns="http://www.w3.org/2000/svg" viewBox="0 0 800 800"><defs><style>.cls-1{fill:#c8ff08;}.cls-1,.cls-2{stroke-width:0px;}.cls-2{fill:#005e60;}</style></defs><g id="Background"><circle class="cls-1" cx="400" cy="400" r="400"/></g><g id="Design"><path class="cls-2" d="M642.98,661.48l-46.7-540c-.27-3.1-2.86-5.48-5.98-5.48h-20.13c-1.68,0-3.29.71-4.42,1.94-1.14,1.24-1.7,2.9-1.56,4.57l7.45,86.1h-130.27l7.45-86.1c.15-1.67-.42-3.33-1.56-4.57-1.14-1.24-2.74-1.94-4.42-1.94h-20.13c-3.11,0-5.71,2.38-5.98,5.48l-20.04,231.67c-2.38-1.17-5.25-1.89-8.71-1.89h-77.07c-1.2,0-2.34-.5-3.15-1.39l-3.06-3.34c-8.97-9.8-33.9-34.52-44.17-44.67-2.88-2.85-6.77-4.45-10.83-4.45h-35.71c-2.67,0-5.27.86-7.4,2.47-1.91,1.44-4.48,3.38-7.27,5.5v-160.39c0-2.76-2.24-5-5-5s-5,2.24-5,5v168.09c-1.94,1.52-3.71,2.93-5.14,4.1-1.6,1.31-3.07,2.52-4.37,3.56l-49.1,39.65c-.73.59-1.15,1.47-1.15,2.42v89.92c-.3,11.43,8.84,18.78,17.6,19.89,8.41,1.07,19.53-3.29,23.18-19.11h-.01c.12-.88.15-6.21.11-50.47-.01-11.17-.02-20.82,0-21.23v-.12c0-.72.35-1.4.89-1.81l17.09-11.74c-.05,10.55-.32,65.84-.46,120.56-.09,35.54-.11,63.89-.06,84.25.07,29,.2,36.45.57,38.53h-.04c-.17,2.66-.58,16.42,7.71,25.41,4.38,4.79,10.58,7.32,17.33,7.32,3.17,0,6.46-.56,9.74-1.71,9.39-3.28,19.8-12.34,20.86-27.91v-.13s0-.04,0-.04c-.01-1.84,0-33.96,0-67.93.01-62.69.02-79.25,0-83.7l55.22,47.14c.7.6.95,1.59.62,2.45l-24.63,64.27c-4.28,10.4-5.21,29.74,9.73,40.37,6.18,4.28,14.57,5.41,22.44,3.03,9.2-2.79,16.44-9.81,20.34-19.69.07-.13,3.56-8.85,25.06-62.55,4.29-10.72,7.68-19.19,7.75-19.35,3.96-9.18,6.73-29.94-11.15-42.78l-74.52-55.68v-43.09l11.06,12.68c1.42,1.61,3.45,2.53,5.58,2.53h96.55c1.75.09,3.52-.17,5.24-.72l-23.36,270.06c-.15,1.67.42,3.33,1.56,4.57,1.14,1.24,2.74,1.94,4.42,1.94h20.13c3.11,0,5.71-2.38,5.98-5.48l6.16-71.24h196.46l6.16,71.24c.27,3.1,2.86,5.48,5.98,5.48h20.13c1.68,0,3.29-.71,4.42-1.94,1.14-1.24,1.7-2.9,1.56-4.57ZM257.25,315.49l6.56,7v95.16l-6.56.94v-103.1ZM217.55,307.94h29.24s0,25.91,0,25.91c0,0-6.36,0-11.67,0-5.47,0-10.39,0-12.99,0h-4.58v-25.91ZM217.55,345.59c.17-.17,29.24,0,29.24,0v73.94l-29.24,1.87s-.17-75.64,0-75.81ZM198.39,347.51c-.98-.49-2.13-.39-3,.26l-34.83,25.7c-1.06.77-1.69,2.02-1.69,3.34v75.2c-1.76,9.16-9.63,9.26-9.96,9.26-6.59,0-7.62-6.8-7.78-8.95v-84.94c0-.37.16-.71.45-.95l65.56-52.03v107.94h-7.16v-72.25c0-1.1-.61-2.09-1.59-2.58ZM218.71,631.77c-5.21,1.59-10.37.84-13.28-1.85l-.77-.83c-5.46-5.89-4.7-16.81-4.7-16.89.02-.2.03-17.86.02-126.77,0-21.76,0-43.23,0-47.38h1.19l29.77,18.77c.99.63,1.57,1.69,1.57,2.85v154.54c-.78,8.59-5.94,15.16-13.8,17.56ZM240.59,447.28l-23.61-13.89c8.26-.25,29.82-1.13,40.41-3.62l-16.8,17.51ZM342.63,485.03c15.03,10.79,7.67,28.17,7.34,28.92-.03.06-4.78,11.94-18.16,45.34-7.44,18.59-14.47,36.14-14.55,36.34-2.83,6.87-7.41,11.63-12.91,13.42-4.35,1.41-8.95.82-12.91-1.61-12-8.95-5.69-25.79-5.41-26.51l27.11-70.76c.61-1.6.15-3.43-1.15-4.54l-61.47-52.19,20.14-22.18,71.96,53.78ZM578.92,292.8l-144.92.98,4.53-52.33h135.95l4.44,51.36ZM580.95,316.27h-148.89l1.08-12.49,146.65-.99,1.17,13.48ZM596.08,491.27h-179.16l1.08-12.47,176.92-1.03,1.17,13.5ZM423.83,411.4h165.35l4.88,56.38-175.19,1.02,4.96-57.39ZM588.31,401.4h-163.62l1.13-13.08,161.4.52,1.09,12.56ZM416.05,501.27h180.89l4.89,56.51-190.76,1.01,4.97-57.52ZM426.69,378.32l4.5-52.05h150.62l4.55,52.57-159.67-.52ZM572.5,218.62l1.11,12.82h-134.22l1.11-12.82h132ZM388.29,380.58h-92.3c-1.6,0-3.11-.69-4.16-1.89l-14.78-16.94h0c-1.35-1.54-2.09-3.53-2.09-5.59v-25.47s27.11,30.1,27.11,30.1c1.16,1.3,2.83,2.04,4.57,2.04h81.35c5.53,0,6.94,4.42,7.3,6.57l-.48,5.53c-1.46,5.17-5.19,5.65-6.51,5.65ZM390.63,656h-8.09l45.67-528h8.08l-45.67,528ZM409.13,581.27l1.08-12.48,192.48-1.01,1.17,13.49h-194.73ZM622.37,656l-45.67-528h8.08l45.67,528h-8.09Z"/><path class="cls-2" d="M246.99,290.94c20.1,0,36.45-16.36,36.45-36.46,0-16.88-11.53-31.12-27.11-35.26v-99.22c0-2.76-2.24-5-5-5s-5,2.24-5,5v98.02c-19.79.36-35.79,16.57-35.79,36.46s16.35,36.46,36.45,36.46ZM246.99,230c13.48,0,24.45,10.98,24.45,24.47s-10.97,24.46-24.45,24.46-24.45-10.97-24.45-24.46,10.97-24.47,24.45-24.47Z"/></g></svg>