<?xml version="1.0" encoding="UTF-8"?><svg xmlns="http://www.w3.org/2000/svg" viewBox="0 0 800 800"><defs><style>.cls-1{fill:#c8ff08;}.cls-1,.cls-2{stroke-width:0px;}.cls-2{fill:#005e60;}</style></defs><g id="Background"><circle class="cls-1" cx="400" cy="400" r="400"/></g><g id="Design"><path class="cls-2" d="M593.42,161H241.8c-3.31,0-6,2.69-6,6v312.41l-72.7,72.7s-.01.01-.02.02l-11.12,11.12c-.25.25-.46.52-.65.8-.7.62-1.39,1.25-2.04,1.9-8.31,8.31-12.9,19.36-12.9,31.12,0,11.76,4.58,22.81,12.89,31.12,8.58,8.58,19.85,12.87,31.12,12.87s22.54-4.29,31.12-12.87c.66-.66,1.29-1.35,1.9-2.05.28-.19.55-.4.79-.65l11.13-11.13s0,0,0,0l10.45-10.45v37.99c0,3.31,2.69,6,6,6h351.63c3.31,0,6-2.69,6-6V167c0-3.31-2.69-6-6-6ZM364.24,367.95l45.28,45.28-153.81,153.8-45.28-45.28,153.81-153.8ZM420.64,350.7l10.47-4.23-3.29,9.28-7.7,1.18.52-6.23ZM411.2,366.5c.93.87,2.15,1.34,3.41,1.34.25,0,.51-.02.76-.06l12.52-1.92-12.14,35.42-39.57-39.57,34.49-11.82-1.04,12.53c-.13,1.53.45,3.03,1.57,4.07ZM221.18,601.55l-45.28-45.28,26.05-26.04,45.27,45.27-18.09,18.09-7.96,7.96ZM157.74,619.71c-6.05-6.05-9.38-14.09-9.38-22.64s3.33-16.59,9.38-22.64c.76-.76,1.56-1.48,2.39-2.16.15-.12.29-.25.43-.39,0,0,0,0,0,0,0,0,0,0,0,0,.17-.17.33-.35.48-.54.04-.05.07-.1.11-.14.1-.14.2-.29.29-.43.02-.03.05-.06.06-.1l5.76-5.76,45.28,45.28-5.76,5.76s-.06.04-.09.06c-.15.09-.3.19-.45.3-.05.03-.09.07-.14.1-.19.15-.37.31-.54.48,0,0,0,0,0,0,0,0,0,.01-.01.02-.13.13-.25.27-.37.41-.68.83-1.4,1.63-2.16,2.39-12.48,12.48-32.79,12.48-45.28,0ZM587.42,635.9H247.8v-43.99l67.83-67.83h215.33c3.31,0,6-2.69,6-6s-2.69-6-6-6h-203.33l48.01-48.01h155.32c3.31,0,6-2.69,6-6s-2.69-6-6-6h-143.32l35.21-35.21c1.12-1.13,1.76-2.65,1.76-4.24,0-.05,0-.09,0-.14l2.89-8.42h103.47c3.31,0,6-2.69,6-6s-2.69-6-6-6h-99.36l16.45-48.01h82.91c3.31,0,6-2.69,6-6s-2.69-6-6-6h-78.98c.18-1.77-.42-3.56-1.71-4.85-1.62-1.62-4.02-2.18-6.19-1.43l-18.34,6.28h-124.03c-3.31,0-6,2.69-6,6s2.69,6,6,6h89l-25.75,8.82c-1.58-.03-3.16.54-4.37,1.74l-37.45,37.44h-21.07c-3.31,0-6,2.69-6,6s2.69,6,6,6h9.07l-63.36,63.36V173h339.63v462.9Z"/><path class="cls-2" d="M530.96,572.09h-229.25c-3.31,0-6,2.69-6,6s2.69,6,6,6h229.25c3.31,0,6-2.69,6-6s-2.69-6-6-6Z"/><path class="cls-2" d="M301.71,292.21h229.25c3.31,0,6-2.69,6-6v-58.82c0-3.31-2.69-6-6-6h-229.25c-3.31,0-6,2.69-6,6v58.82c0,3.31,2.69,6,6,6ZM307.71,233.38h217.25v46.82h-217.25v-46.82Z"/><path class="cls-2" d="M248.76,528.63c1.17,1.17,2.71,1.76,4.24,1.76s3.07-.59,4.24-1.76l115.04-115.03c2.34-2.34,2.34-6.14,0-8.49-2.34-2.34-6.14-2.34-8.49,0l-115.04,115.03c-2.34,2.34-2.34,6.14,0,8.49Z"/></g></svg>